<svg xmlns="http://www.w3.org/2000/svg" viewBox="0 0 319 610" preserveAspectRatio="xMinYMid"><path fill="#222745" d="M269.1-10H-7v628h274.4L15.6 318.4c-3.1-3.7-4.6-8.5-4.6-13.4s1.5-9.7 4.6-13.4L269.1-10z"/><path fill="#dd343a" d="M327.7-12.8c-3.7.3-7.2 1.8-10 4.6l-302 302c-3.1 3.1-4.6 7.2-4.6 11.2 0-4.8 1.5-9.7 4.6-13.4l302-359.4c2.8-3.3 6.4-5.1 10-5.5v60.5z"/><path fill="#f5f5f5" d="M327.7 622.8c-3.7-.3-7.2-1.8-10-4.6l-302-302c-3.1-3.1-4.6-7.2-4.6-11.2 0 4.8 1.5 9.7 4.6 13.4l302 359.4c2.8 3.3 6.4 5.1 10 5.5v-60.5z"/></svg>